<?xml version="1.0" encoding="utf-8"?>
<!-- Generator: Adobe Illustrator 20.1.0, SVG Export Plug-In . SVG Version: 6.00 Build 0)  -->
<svg version="1.1" id="Layer_1" xmlns="http://www.w3.org/2000/svg" xmlns:xlink="http://www.w3.org/1999/xlink" x="0px" y="0px"
	 viewBox="0 0 571.4 341.7" style="enable-background:new 0 0 571.4 341.7;" xml:space="preserve">
<style type="text/css">
	.st0{fill:#F18A42;}
	.st1{fill:#E5D0BF;}
	.st2{fill:#0272A6;stroke:#000000;stroke-width:4;stroke-miterlimit:10;}
	.st3{fill:#FFFFFF;}
</style>
<path class="st0" d="M326.8,339.3h-61.7c-4.7,0-8.5-3.8-8.5-8.5V167.1c0-1.6,1.3-2.8,2.8-2.8H324c1.6,0,2.8,1.3,2.8,2.8V339.3z"/>
<path class="st1" d="M559.4,339.3H326.8V167.1c0-1.6,1.3-2.8,2.8-2.8h229.7c4.7,0,8.5,3.8,8.5,8.5v158
	C567.9,335.5,564,339.3,559.4,339.3z"/>
<path class="st2" d="M341.6,154.7c0,0-0.2-137.4-0.2-137.3c0-6.6-5.4-12-12-12H15.7c-5.1,0-9.3,4.2-9.3,9.3v138.8
	c0,6.5,5.4,11.9,11.9,11.9h280c0.3,0,2.1,0.3,2.3,0.4c4.8,2.7,66.4,62.9,66.9,62.5C368.1,227.9,341.4,159.2,341.6,154.7z"/>
<path class="st3" d="M314,330.5h-18.5c-7.3,0-10.9-3.7-10.9-11V247h-11.4v-11.4h11.4v-29.6h12.8v29.6H314V247h-16.6v72.2H314V330.5z
	"/>
<path d="M384.3,330.5h-12.8v-2.6c-5.1,0.7-10.3,1.4-15.4,2.1c-6.4,0.8-11.5,1.2-15.3,1.2c-7.1,0-10.6-3.5-10.6-10.5v-34.7
	c0-7.3,3.7-10.9,11-10.9h30.6v-28.6h-27.9v16.2h-12.6v-16c0-7.4,3.6-11,10.9-11h31.3c7.3,0,10.9,3.7,10.9,11V330.5z M371.7,318.7
	v-33.6h-29v34.2L371.7,318.7z"/>
<path d="M419.2,330.5h-12.8V177.7h12.8V330.5z"/>
<path d="M494.6,330.5h-14.2l-26.2-48.4v48.4h-13V177.7h13v97.1l24.4-39.3h14v0.4l-27.6,42L494.6,330.5z"/>
<path d="M559.4,319.5c0,7.4-3.7,11-11,11h-29.8c-7.4,0-11-3.7-11-11v-21.6h12.8v21.4h26.3v-18.9l-34-27.8c-3.3-2.6-4.9-6-4.9-10.2
	v-15.8c0-7.4,3.7-11,11-11h29.4c7.4,0,11,3.7,11,11v18.9h-12.6v-18.8h-26.3v16.6l34.3,27.8c3.2,2.5,4.8,6,4.8,10.4V319.5z"/>
<g>
	<path class="st3" d="M54.4,134c0,0.4-0.1,0.8-0.4,1.1c-0.2,0.3-0.7,0.6-1.3,0.8c-0.6,0.2-1.4,0.3-2.5,0.5c-1,0.1-2.3,0.2-3.8,0.2
		c-1.5,0-2.8-0.1-3.8-0.2c-1.1-0.1-1.9-0.3-2.5-0.5c-0.6-0.2-1.1-0.4-1.3-0.8c-0.2-0.3-0.4-0.7-0.4-1.1V34.5c0-0.4,0.1-0.8,0.4-1.1
		c0.3-0.3,0.7-0.6,1.4-0.8c0.6-0.2,1.5-0.3,2.5-0.5c1-0.1,2.2-0.2,3.7-0.2c1.5,0,2.8,0.1,3.8,0.2c1,0.1,1.8,0.3,2.5,0.5
		c0.6,0.2,1,0.4,1.3,0.8c0.2,0.3,0.4,0.7,0.4,1.1V134z"/>
	<path class="st3" d="M143.5,130.4c0,1-0.1,1.8-0.2,2.5c-0.1,0.7-0.3,1.3-0.6,1.8c-0.3,0.5-0.7,0.8-1.1,1c-0.4,0.2-0.9,0.3-1.3,0.3
		H82.7c-1.4,0-2.8-0.4-4-1.2c-1.3-0.8-1.9-2.3-1.9-4.4V38c0-2.1,0.6-3.5,1.9-4.4c1.3-0.8,2.6-1.2,4-1.2h56.9c0.5,0,0.9,0.1,1.3,0.3
		c0.4,0.2,0.7,0.6,1,1c0.2,0.5,0.4,1.1,0.6,1.8c0.2,0.7,0.2,1.6,0.2,2.7c0,1-0.1,1.8-0.2,2.5c-0.2,0.7-0.4,1.3-0.6,1.8
		c-0.2,0.5-0.6,0.8-1,1c-0.4,0.2-0.9,0.3-1.3,0.3H92.7v32.5H133c0.5,0,0.9,0.1,1.3,0.4c0.4,0.2,0.7,0.6,1,1c0.3,0.4,0.5,1,0.6,1.8
		c0.1,0.7,0.2,1.6,0.2,2.6c0,1-0.1,1.8-0.2,2.5c-0.1,0.7-0.3,1.3-0.6,1.7c-0.3,0.4-0.6,0.7-1,0.9c-0.4,0.2-0.9,0.3-1.3,0.3H92.7
		v37.1h47.6c0.5,0,0.9,0.1,1.3,0.3c0.4,0.2,0.8,0.5,1.1,1c0.3,0.5,0.5,1,0.6,1.8C143.5,128.4,143.5,129.3,143.5,130.4z"/>
	<path class="st3" d="M226.8,130.4c0,1-0.1,1.8-0.2,2.5c-0.1,0.7-0.3,1.3-0.6,1.8c-0.3,0.5-0.7,0.8-1.1,1c-0.4,0.2-0.9,0.3-1.3,0.3
		h-57.6c-1.4,0-2.8-0.4-4-1.2c-1.3-0.8-1.9-2.3-1.9-4.4V38c0-2.1,0.6-3.5,1.9-4.4c1.3-0.8,2.6-1.2,4-1.2h56.9c0.5,0,0.9,0.1,1.3,0.3
		c0.4,0.2,0.7,0.6,1,1c0.2,0.5,0.4,1.1,0.6,1.8c0.2,0.7,0.2,1.6,0.2,2.7c0,1-0.1,1.8-0.2,2.5c-0.2,0.7-0.4,1.3-0.6,1.8
		c-0.2,0.5-0.6,0.8-1,1c-0.4,0.2-0.9,0.3-1.3,0.3H176v32.5h40.2c0.5,0,0.9,0.1,1.3,0.4c0.4,0.2,0.7,0.6,1,1c0.3,0.4,0.5,1,0.6,1.8
		c0.1,0.7,0.2,1.6,0.2,2.6c0,1-0.1,1.8-0.2,2.5c-0.1,0.7-0.3,1.3-0.6,1.7c-0.3,0.4-0.6,0.7-1,0.9c-0.4,0.2-0.9,0.3-1.3,0.3H176v37.1
		h47.6c0.5,0,0.9,0.1,1.3,0.3c0.4,0.2,0.8,0.5,1.1,1c0.3,0.5,0.5,1,0.6,1.8C226.7,128.4,226.8,129.3,226.8,130.4z"/>
	<path class="st3" d="M310,130.4c0,1-0.1,1.8-0.2,2.5c-0.1,0.7-0.3,1.3-0.6,1.8c-0.3,0.5-0.7,0.8-1.1,1c-0.4,0.2-0.9,0.3-1.3,0.3
		h-57.6c-1.4,0-2.8-0.4-4-1.2c-1.3-0.8-1.9-2.3-1.9-4.4V38c0-2.1,0.6-3.5,1.9-4.4c1.3-0.8,2.6-1.2,4-1.2h56.9c0.5,0,0.9,0.1,1.3,0.3
		c0.4,0.2,0.7,0.6,1,1c0.2,0.5,0.4,1.1,0.6,1.8c0.2,0.7,0.2,1.6,0.2,2.7c0,1-0.1,1.8-0.2,2.5c-0.2,0.7-0.4,1.3-0.6,1.8
		c-0.2,0.5-0.6,0.8-1,1c-0.4,0.2-0.9,0.3-1.3,0.3h-46.9v32.5h40.2c0.5,0,0.9,0.1,1.3,0.4c0.4,0.2,0.7,0.6,1,1c0.3,0.4,0.5,1,0.6,1.8
		c0.1,0.7,0.2,1.6,0.2,2.6c0,1-0.1,1.8-0.2,2.5c-0.1,0.7-0.3,1.3-0.6,1.7c-0.3,0.4-0.6,0.7-1,0.9c-0.4,0.2-0.9,0.3-1.3,0.3h-40.2
		v37.1h47.6c0.5,0,0.9,0.1,1.3,0.3c0.4,0.2,0.8,0.5,1.1,1c0.3,0.5,0.5,1,0.6,1.8C309.9,128.4,310,129.3,310,130.4z"/>
</g>
</svg>
