<?xml version="1.0" encoding="utf-8"?>
<!-- Generator: Adobe Illustrator 20.1.0, SVG Export Plug-In . SVG Version: 6.00 Build 0)  -->
<svg version="1.1" id="Layer_1" xmlns="http://www.w3.org/2000/svg" xmlns:xlink="http://www.w3.org/1999/xlink" x="0px" y="0px"
	 viewBox="0 0 64 64" style="enable-background:new 0 0 64 64;" xml:space="preserve">
<style type="text/css">
	.st0{fill:#BAAF58;}
	.st1{fill:#F1EFDE;}
</style>
<circle class="st0" cx="32" cy="32" r="32"/>
<g>
	<path class="st1" d="M42.3,56.3c-0.1,0.2-0.3,0.4-0.4,0.5c-0.1,0.1-0.2,0.2-0.3,0.2c-0.1,0.1-0.2,0.1-0.3,0.1
		c-0.1,0-0.2-0.1-0.2-0.2L12.5,33c-0.2-0.2-0.3-0.5-0.3-0.9c0-0.4,0.1-0.7,0.4-1.1l28.6-24c0.1-0.1,0.1-0.1,0.2-0.1
		c0.1,0,0.2,0,0.3,0.1C41.7,7,41.8,7.1,42,7.3c0.2,0.1,0.3,0.3,0.5,0.6c0.2,0.2,0.3,0.5,0.5,0.6c0.1,0.2,0.2,0.3,0.2,0.5
		c0.1,0.1,0.1,0.2,0.1,0.3c0,0.1-0.1,0.2-0.1,0.3l-26,21.9c-0.4,0.3-0.4,0.9,0,1.2l25.6,22.1c0.1,0.1,0.1,0.2,0.1,0.3
		c0,0.1,0,0.2,0,0.4c0,0.1-0.1,0.3-0.2,0.4C42.5,55.9,42.4,56.1,42.3,56.3z"/>
</g>
</svg>
