<?xml version="1.0" encoding="utf-8"?>
<!-- Generator: Adobe Illustrator 20.1.0, SVG Export Plug-In . SVG Version: 6.00 Build 0)  -->
<svg version="1.1" id="Layer_1" xmlns="http://www.w3.org/2000/svg" xmlns:xlink="http://www.w3.org/1999/xlink" x="0px" y="0px"
	 viewBox="0 0 652.4 186.6" style="enable-background:new 0 0 652.4 186.6;" xml:space="preserve">
<style type="text/css">
	.st0{fill:#FACCA9;}
	.st1{fill:#F18A42;}
	.st2{fill:#0272A6;stroke:#000000;stroke-width:4;stroke-linecap:round;stroke-miterlimit:10;}
	.st3{display:none;fill:#0272A6;stroke:#000000;stroke-width:4;stroke-miterlimit:10;}
	.st4{fill:#FDE3D0;}
	.st5{fill:#FFFFFF;}
</style>
<path class="st0" d="M634.5,180.6H406.2V5.6h228.3c7,0,12.8,5.7,12.8,12.8v149.5C647.3,174.9,641.6,180.6,634.5,180.6z"/>
<path class="st1" d="M406.2,180.6h-70.9c-1.6,0-2.8-1.3-2.8-2.8V8.5c0-1.6,1.3-2.8,2.8-2.8h70.9V180.6z"/>
<path class="st2" d="M402.2,102.8l-61.8,11.6l-2,0.5c-1.3,0.4-1.7-0.7-1.8-2.3c0,0,0,0,0,0l0.1-105.2c0,0-259.6,0.2-317,0
	c-7.1,0-12.8,5.5-12.8,12.9v147c0,7.3,5.6,11.4,12.6,11.4l317.1,0c0,0,0-12.8,0-14c0-0.4,69.6-59.9,69.5-60.7
	c-0.1-1.4-0.9-2.1-2-1.8C403.6,102.4,402.9,102.6,402.2,102.8z"/>
<path class="st3" d="M295.4,155c0,0-0.2-137.4-0.2-137.3c0-6.6-5.4-12-12-12H-30.4c-5.1,0-9.3,4.2-9.3,9.3v138.8
	c0,6.5,5.4,11.9,11.9,11.9h280c0.3,0,2.1,0.3,2.3,0.4c4.8,2.7,66.4,62.9,66.9,62.5C321.9,228.2,295.3,159.5,295.4,155z"/>
<g>
	<path class="st4" d="M393.5,171.9H375c-7.3,0-10.9-3.7-10.9-11V88.3h-11.4V76.9h11.4V47.3h12.8v29.6h16.6v11.4h-16.6v72.2h16.6
		V171.9z"/>
	<path d="M463.8,171.9H451v-2.6c-5.1,0.7-10.3,1.4-15.4,2.1c-6.4,0.8-11.5,1.2-15.3,1.2c-7.1,0-10.6-3.5-10.6-10.5v-34.7
		c0-7.3,3.7-10.9,11-10.9h30.6V87.7h-27.9v16.2h-12.6v-16c0-7.4,3.6-11,10.9-11h31.3c7.3,0,10.9,3.7,10.9,11V171.9z M451.2,160.1
		v-33.6h-29v34.2L451.2,160.1z"/>
	<path d="M498.6,171.9h-12.8V19.1h12.8V171.9z"/>
	<path d="M574,171.9h-14.2l-26.2-48.4v48.4h-13V19.1h13v97.1l24.4-39.3h14v0.4l-27.6,42L574,171.9z"/>
	<path d="M638.9,160.9c0,7.4-3.7,11-11,11h-29.8c-7.4,0-11-3.7-11-11v-21.6h12.8v21.4h26.3v-18.9l-34-27.8c-3.3-2.6-4.9-6-4.9-10.2
		V87.9c0-7.4,3.7-11,11-11h29.4c7.4,0,11,3.7,11,11v18.9h-12.6V88.1h-26.3v16.6l34.3,27.8c3.2,2.5,4.8,6,4.8,10.4V160.9z"/>
</g>
<g>
	<path class="st5" d="M51.8,165.1c0,0.6-0.1,1.1-0.4,1.6c-0.2,0.4-0.7,0.8-1.3,1.1c-0.6,0.3-1.4,0.5-2.5,0.7c-1,0.2-2.3,0.3-3.8,0.3
		c-1.5,0-2.8-0.1-3.8-0.3c-1.1-0.2-1.9-0.4-2.5-0.7c-0.6-0.3-1.1-0.6-1.3-1.1c-0.2-0.4-0.4-1-0.4-1.6V27.3c0-0.6,0.1-1.1,0.4-1.6
		c0.3-0.4,0.7-0.8,1.4-1.1c0.6-0.3,1.5-0.5,2.5-0.7c1-0.2,2.2-0.3,3.7-0.3c1.5,0,2.8,0.1,3.8,0.3c1,0.2,1.8,0.4,2.5,0.7
		c0.6,0.3,1.1,0.6,1.3,1.1c0.2,0.4,0.4,1,0.4,1.6V165.1z"/>
	<path class="st5" d="M140.9,160.1c0,1.3-0.1,2.5-0.2,3.5c-0.1,1-0.3,1.8-0.6,2.5c-0.3,0.7-0.7,1.1-1.1,1.4
		c-0.4,0.3-0.9,0.4-1.3,0.4H80.1c-1.4,0-2.8-0.6-4-1.7c-1.3-1.1-1.9-3.2-1.9-6v-128c0-2.9,0.6-4.9,1.9-6c1.3-1.1,2.6-1.7,4-1.7H137
		c0.5,0,0.9,0.1,1.3,0.4c0.4,0.3,0.7,0.8,1,1.4c0.2,0.7,0.4,1.5,0.6,2.5c0.2,1,0.2,2.2,0.2,3.7c0,1.3-0.1,2.5-0.2,3.5
		c-0.2,1-0.4,1.8-0.6,2.4c-0.2,0.6-0.6,1.1-1,1.4c-0.4,0.3-0.9,0.4-1.3,0.4H90.1v45h40.2c0.5,0,0.9,0.2,1.3,0.5
		c0.4,0.3,0.7,0.8,1,1.4c0.3,0.6,0.5,1.4,0.6,2.4c0.1,1,0.2,2.3,0.2,3.7c0,1.3-0.1,2.5-0.2,3.4c-0.1,1-0.3,1.7-0.6,2.3
		c-0.3,0.6-0.6,1-1,1.3c-0.4,0.3-0.9,0.4-1.3,0.4H90.1v51.3h47.6c0.5,0,0.9,0.1,1.3,0.4c0.4,0.3,0.8,0.8,1.1,1.4
		c0.3,0.6,0.5,1.4,0.6,2.4C140.8,157.4,140.9,158.6,140.9,160.1z"/>
	<path class="st5" d="M224.1,160.1c0,1.3-0.1,2.5-0.2,3.5c-0.1,1-0.3,1.8-0.6,2.5c-0.3,0.7-0.7,1.1-1.1,1.4
		c-0.4,0.3-0.9,0.4-1.3,0.4h-57.6c-1.4,0-2.8-0.6-4-1.7c-1.3-1.1-1.9-3.2-1.9-6v-128c0-2.9,0.6-4.9,1.9-6c1.3-1.1,2.6-1.7,4-1.7
		h56.9c0.5,0,0.9,0.1,1.3,0.4c0.4,0.3,0.7,0.8,1,1.4c0.2,0.7,0.4,1.5,0.6,2.5c0.2,1,0.2,2.2,0.2,3.7c0,1.3-0.1,2.5-0.2,3.5
		c-0.2,1-0.4,1.8-0.6,2.4c-0.2,0.6-0.6,1.1-1,1.4c-0.4,0.3-0.9,0.4-1.3,0.4h-46.9v45h40.2c0.5,0,0.9,0.2,1.3,0.5
		c0.4,0.3,0.7,0.8,1,1.4c0.3,0.6,0.5,1.4,0.6,2.4c0.1,1,0.2,2.3,0.2,3.7c0,1.3-0.1,2.5-0.2,3.4c-0.1,1-0.3,1.7-0.6,2.3
		c-0.3,0.6-0.6,1-1,1.3c-0.4,0.3-0.9,0.4-1.3,0.4h-40.2v51.3h47.6c0.5,0,0.9,0.1,1.3,0.4c0.4,0.3,0.8,0.8,1.1,1.4
		c0.3,0.6,0.5,1.4,0.6,2.4C224.1,157.4,224.1,158.6,224.1,160.1z"/>
	<path class="st5" d="M307.3,160.1c0,1.3-0.1,2.5-0.2,3.5c-0.1,1-0.3,1.8-0.6,2.5c-0.3,0.7-0.7,1.1-1.1,1.4
		c-0.4,0.3-0.9,0.4-1.3,0.4h-57.6c-1.4,0-2.8-0.6-4-1.7c-1.3-1.1-1.9-3.2-1.9-6v-128c0-2.9,0.6-4.9,1.9-6c1.3-1.1,2.6-1.7,4-1.7
		h56.9c0.5,0,0.9,0.1,1.3,0.4c0.4,0.3,0.7,0.8,1,1.4c0.2,0.7,0.4,1.5,0.6,2.5c0.2,1,0.2,2.2,0.2,3.7c0,1.3-0.1,2.5-0.2,3.5
		c-0.2,1-0.4,1.8-0.6,2.4c-0.2,0.6-0.6,1.1-1,1.4c-0.4,0.3-0.9,0.4-1.3,0.4h-46.9v45h40.2c0.5,0,0.9,0.2,1.3,0.5
		c0.4,0.3,0.7,0.8,1,1.4c0.3,0.6,0.5,1.4,0.6,2.4c0.1,1,0.2,2.3,0.2,3.7c0,1.3-0.1,2.5-0.2,3.4c-0.1,1-0.3,1.7-0.6,2.3
		c-0.3,0.6-0.6,1-1,1.3c-0.4,0.3-0.9,0.4-1.3,0.4h-40.2v51.3h47.6c0.5,0,0.9,0.1,1.3,0.4c0.4,0.3,0.8,0.8,1.1,1.4
		c0.3,0.6,0.5,1.4,0.6,2.4C307.3,157.4,307.3,158.6,307.3,160.1z"/>
</g>
</svg>
