 <svg xmlns="http://www.w3.org/2000/svg"  viewBox="0 0 100 100" class="shape-search"  width="26" height="26">
       
            <path id="shape-search" d="M 3.327 96.684 C 5.534 98.895 8.434 100 11.331 100 s 5.797 -1.105 8.004 -3.316 l 21.321 -21.322 c 5.83 3.188 12.393 4.897 19.223 4.897 c 10.721 0 20.798 -4.172 28.379 -11.752 c 15.646 -15.644 15.646 -41.105 0.002 -56.755 C 80.677 4.171 70.598 0 59.877 0 C 49.159 0 39.08 4.171 31.504 11.752 c -7.581 7.576 -11.756 17.655 -11.756 28.376 c 0 6.832 1.71 13.396 4.9 19.226 L 3.327 80.675 C -1.096 85.094 -1.096 92.266 3.327 96.684 Z M 59.879 68.938 c -7.695 0 -14.93 -2.996 -20.371 -8.435 c -5.443 -5.442 -8.439 -12.677 -8.439 -20.375 c 0 -7.695 2.996 -14.933 8.439 -20.372 c 5.441 -5.44 12.676 -8.436 20.369 -8.436 c 7.698 0 14.936 2.997 20.378 8.436 c 11.231 11.236 11.231 29.515 0 40.747 C 74.812 65.941 67.575 68.938 59.879 68.938 Z"
            />
        
</svg>