<svg viewBox="0 0 512 512" width="26" height="26" class="shape-menu" xmlns="http://www.w3.org/2000/svg">
    
        <path id="shape-menu" d="M174.2 39.5h337.8v104.6H174.2V39.5ZM174.2 309.1h337.8V204.5H174.2V309.1ZM174.2 474H512V369.4H174.2V474ZM109.6 92.7c0-30.3-24.5-54.8-54.8-54.8C24.5 38 0 62.5 0 92.7c0 30.3 24.5 54.8 54.8 54.8C85 147.5 109.6 123 109.6 92.7M109.6 250.3c0-30.3-24.5-54.8-54.8-54.8C24.5 195.5 0 220 0 250.3c0 30.3 24.5 54.8 54.8 54.8C85 305 109.6 280.5 109.6 250.3M109.6 418.9c0-30.3-24.5-54.8-54.8-54.8C24.5 364.1 0 388.6 0 418.9s24.5 54.8 54.8 54.8C85 473.6 109.6 449.1 109.6 418.9"
        />
   
</svg>