<?xml version="1.0" encoding="utf-8"?>
<!-- Generator: Adobe Illustrator 20.1.0, SVG Export Plug-In . SVG Version: 6.00 Build 0)  -->
<svg version="1.1" id="Layer_1" xmlns="http://www.w3.org/2000/svg" xmlns:xlink="http://www.w3.org/1999/xlink" x="0px" y="0px"
	 viewBox="0 0 64 64" style="enable-background:new 0 0 64 64;" xml:space="preserve">
<style type="text/css">
	.st0{fill:#45AD65;}
	.st1{fill:#DEFAE7;}
</style>
<circle class="st0" cx="32" cy="32" r="32"/>
<g>
	<path class="st1" d="M14,38.4c0.2-0.3,0.4-0.4,0.5-0.6c0.2-0.1,0.3-0.2,0.5-0.2c0.2,0,0.3,0,0.5,0.1l12.9,6.6l16.8-32.8
		c0.1-0.2,0.2-0.3,0.3-0.4c0.1-0.1,0.3-0.1,0.5-0.1c0.2,0,0.5,0.1,0.8,0.2c0.3,0.1,0.7,0.3,1.2,0.5c0.4,0.2,0.8,0.4,1.1,0.7
		c0.3,0.2,0.5,0.4,0.7,0.6c0.2,0.2,0.2,0.3,0.2,0.5c0,0.2,0,0.3-0.1,0.5L32,49.1c-0.4,0.8-0.9,1.2-1.4,1.3c-0.5,0.1-1,0.1-1.4-0.2
		l-15.9-8.2c-0.2-0.1-0.3-0.2-0.4-0.4c-0.1-0.1-0.1-0.3-0.1-0.6c0-0.2,0.1-0.5,0.2-0.8c0.1-0.3,0.2-0.6,0.4-1
		C13.6,39,13.8,38.6,14,38.4z"/>
</g>
</svg>
